<svg xmlns="http://www.w3.org/2000/svg" viewBox="0 0 64 64">
  <defs>
    <linearGradient id="gradient" x1="0%" y1="0%" x2="100%" y2="100%">
      <stop offset="0%" style="stop-color:#6A5ACD;stop-opacity:1" />
      <stop offset="100%" style="stop-color:#8b5cf6;stop-opacity:1" />
    </linearGradient>
  </defs>
  <rect width="64" height="64" rx="12" fill="url(#gradient)"/>
  <g transform="translate(16, 16)">
    <path d="M16 8H8a2 2 0 0 0-2 2v12a2 2 0 0 0 2 2h16a2 2 0 0 0 2-2V10a2 2 0 0 0-2-2h-8" stroke="white" stroke-width="2.5" fill="none" stroke-linecap="round" stroke-linejoin="round"/>
    <path d="M12 8v-2a2 2 0 0 1 2-2h4a2 2 0 0 1 2 2v2" stroke="white" stroke-width="2.5" fill="none" stroke-linecap="round" stroke-linejoin="round"/>
    <line x1="8" y1="14" x2="24" y2="14" stroke="white" stroke-width="2.5" stroke-linecap="round"/>
  </g>
</svg>

